Coordinates
version=1
nRows=19
nColumns=24
inDegrees=yes

Units are S.I. units (second, meters, Newtons, ...)
Angles are in degrees.

endheader
time	pelvis_tilt	pelvis_list	pelvis_rotation	pelvis_tx	pelvis_ty	pelvis_tz	hip_flexion_r	hip_adduction_r	hip_rotation_r	knee_angle_r	ankle_angle_r	subtalar_angle_r	mtp_angle_r	hip_flexion_l	hip_adduction_l	hip_rotation_l	knee_angle_l	ankle_angle_l	subtalar_angle_l	mtp_angle_l	lumbar_extension	lumbar_bending	lumbar_rotation
      4.25500000	    -10.61925910	      4.55848805	     -3.11311308	     -0.77019192	     -0.02401763	     -0.26917166	     26.65564390	     -7.46341231	     -4.92649883	    -63.16546215	    -12.36792892	      1.57799720	     26.77616891	     19.24552124	      8.01998457	      5.01580170	    -23.77690359	      6.09732393	     -0.22364536	      6.90280748	     11.30096247	     -7.62451184	     -1.57990398
      4.26000000	    -10.57384340	      4.19351085	     -2.97580378	     -0.76405644	     -0.02279023	     -0.26971732	     27.26376975	     -7.10976413	     -5.36524897	    -62.54677258	    -11.75508283	      1.82575125	     26.79822239	     18.40804966	      7.74925916	      5.40406489	    -23.20590773	      6.18897329	     -0.32124351	      6.65738443	     11.19503302	     -7.25310750	     -1.93280030
      4.26500000	    -10.51177972	      3.84518157	     -2.82466261	     -0.75795885	     -0.02164875	     -0.27025907	     27.84070378	     -6.78227617	     -5.81786880	    -61.87775214	    -11.13623940	      2.05542738	     26.75634354	     17.56215110	      7.49327507	      5.81552186	    -22.64449228	      6.31097076	     -0.40248524	      6.39650709	     11.06855012	     -6.90841327	     -2.31428309
      4.27000000	    -10.47416448	      3.49618035	     -2.68042378	     -0.75187949	     -0.02058854	     -0.27077525	     28.42896105	     -6.44501471	     -6.25783339	    -61.14148731	    -10.56505919	      2.27610823	     26.66888024	     16.75753487	      7.21602826	      6.16427239	    -22.09518899	      6.42023711	     -0.44616437	      6.16229180	     10.97290846	     -6.55684578	     -2.65588772
      4.27500000	    -10.46258688	      3.15228052	     -2.54104294	     -0.74582457	     -0.01961922	     -0.27126337	     29.02957777	     -6.10529201	     -6.68611366	    -60.33750288	    -10.03833085	      2.47906493	     26.57806364	     16.00175695	      6.92529407	      6.44212681	    -21.56657417	      6.49841897	     -0.45896061	      5.97789953	     10.90868796	     -6.20727995	     -2.97284015
      4.28000000	    -10.47524728	      2.83167479	     -2.43946515	     -0.73979991	     -0.01881669	     -0.27166134	     29.66198875	     -5.76245022	     -7.06416533	    -59.49606004	     -9.54774917	      2.64607641	     26.49650586	     15.27752642	      6.63848299	      6.69488314	    -21.03715578	      6.63069192	     -0.47866492	      5.85636267	     10.87866587	     -5.88568492	     -3.24764692
      4.28500000	    -10.40534850	      2.52679447	     -2.21333086	     -0.73379314	     -0.01799547	     -0.27220793	     30.14712921	     -5.50511717	     -7.54906260	    -58.58329685	     -8.97166073	      2.79716256	     26.25297392	     14.48229531	      6.40291388	      7.04824816	    -20.53726797	      6.73469180	     -0.45949694	      5.65356274	     10.73834708	     -5.60420509	     -3.68618303
      4.29000000	    -10.38535489	      2.24209539	     -2.04712285	     -0.72779331	     -0.01732892	     -0.27263636	     30.69098841	     -5.22573601	     -7.95664064	    -57.62724370	     -8.43636346	      2.94709648	     25.95702819	     13.74805320	      6.15840742	      7.32521215	    -20.04120362	      6.85063466	     -0.44857644	      5.46707279	     10.66740720	     -5.33540616	     -4.01954370
      4.29500000	    -10.43873911	      1.98280345	     -1.94499869	     -0.72181337	     -0.01685212	     -0.27299747	     31.31988565	     -4.92961679	     -8.27057154	    -56.61601628	     -7.98278262	      3.07228040	     25.81191206	     13.10973071	      5.91407487	      7.48456576	    -19.55860056	      6.96119489	     -0.44802690	      5.37498708	     10.68988361	     -5.06831487	     -4.25320156
      4.30000000	    -10.38099425	      1.73053060	     -1.69476764	     -0.71585809	     -0.01634491	     -0.27344531	     31.76649258	     -4.72099252	     -8.72793820	    -55.54558948	     -7.40231470	      3.18166848	     25.40690933	     12.36796664	      5.71026062	      7.80567382	    -19.10891684	      7.08166592	     -0.40375244	      5.20460741	     10.56604400	     -4.86824738	     -4.69449590
      4.30500000	    -10.38127666	      1.50282909	     -1.50575113	     -0.70989658	     -0.01599695	     -0.27380495	     32.27469051	     -4.49360597	     -9.09219320	    -54.42609234	     -6.84654047	      3.32131966	     24.99088610	     11.69763846	      5.50911855	      8.03539529	    -18.66874352	      7.20353634	     -0.38329230	      5.04740445	     10.52053155	     -4.67716386	     -5.02777688
      4.31000000	    -10.39534790	      1.29609802	     -1.31321593	     -0.70394917	     -0.01575966	     -0.27415988	     32.77885754	     -4.28650360	     -9.43631034	    -53.24868906	     -6.29951070	      3.45936159	     24.59815425	     11.05753774	      5.32542433	      8.23668844	    -18.24859185	      7.32319222	     -0.35578137	      4.91891729	     10.49129499	     -4.50396077	     -5.35342995
      4.31500000	    -10.41295623	      1.10707501	     -1.12204457	     -0.69800162	     -0.01562816	     -0.27448750	     33.26909642	     -4.09432437	     -9.76208566	    -52.02207923	     -5.74799469	      3.61212482	     24.19791011	     10.42695824	      5.15478738	      8.42499961	    -17.83521759	      7.45553167	     -0.33089996	      4.80803283	     10.46455473	     -4.35167979	     -5.68243923
      4.32000000	    -10.42560094	      0.94132846	     -0.91818356	     -0.69207209	     -0.01555368	     -0.27479349	     33.72844652	     -3.92307920	    -10.05846756	    -50.73559440	     -5.18956548	      3.80016517	     23.73590756	      9.80165407	      5.00455430	      8.61571571	    -17.43590505	      7.57380627	     -0.28500130	      4.69700101	     10.43211886	     -4.23175384	     -6.01673147
      4.32500000	    -10.44851366	      0.78645181	     -0.71410945	     -0.68616109	     -0.01557068	     -0.27505822	     34.17582082	     -3.75938202	    -10.34053949	    -49.38988509	     -4.62578570	      4.02569357	     23.27945338	      9.19952094	      4.85839821	      8.77568340	    -17.05174189	      7.69426582	     -0.23324287	      4.60501548	     10.40455182	     -4.13274167	     -6.34441519
      4.33000000	    -10.46312170	      0.65941444	     -0.55045591	     -0.68022886	     -0.01564550	     -0.27525486	     34.60198912	     -3.59316455	    -10.55572090	    -48.01315400	     -4.02593244	      4.33029587	     22.54866082	      8.57879634	      4.73054004	      8.89995240	    -16.65293301	      7.81990900	     -0.18924213	      4.47363089	     10.37657927	     -4.05315792	     -6.61700550
      4.33500000	    -10.53642166	      0.52430105	     -0.34293092	     -0.67433426	     -0.01586485	     -0.27551597	     35.05072289	     -3.45844435	    -10.82538918	    -46.53165051	     -3.52236659	      4.62649042	     22.35706299	      8.06231822	      4.59755452	      8.98351588	    -16.31474158	      7.94761188	     -0.11034701	      4.46709682	     10.40400110	     -3.97333705	     -6.92871704
      4.34000000	    -10.53930205	      0.39997580	     -0.11463158	     -0.66846611	     -0.01604045	     -0.27576687	     35.38705705	     -3.32774447	    -11.04460640	    -44.98916703	     -2.98661040	      4.99665748	     21.97829492	      7.46913000	      4.47233023	      9.09178843	    -15.97068549	      8.07090812	      0.00364369	      4.44557630	     10.34276277	     -3.91289374	     -7.29569946
      4.34500000	    -10.65804040	      0.29936367	      0.01339049	     -0.66261981	     -0.01640376	     -0.27585953	     35.84355892	     -3.14367057	    -11.11392824	    -43.37495051	     -2.56933077	      5.35723233	     21.82415175	      7.00651113	      4.35409324	      9.09878153	    -15.63541886	      8.16628541	      0.05491676	      4.43365967	     10.41454216	     -3.85752171	     -7.50275086
